<?xml version="1.0" standalone="no"?>
<!DOCTYPE svg PUBLIC "-//W3C//DTD SVG 20010904//EN"
 "http://www.w3.org/TR/2001/REC-SVG-20010904/DTD/svg10.dtd">
<svg version="1.0" xmlns="http://www.w3.org/2000/svg"
 width="1000.000000pt" height="1000.000000pt" viewBox="0 0 1000.000000 1000.000000"
 preserveAspectRatio="xMidYMid meet">
<metadata>
Created by potrace 1.14, written by Peter Selinger 2001-2017
</metadata>
<g transform="translate(0.000000,1000.000000) scale(0.100000,-0.100000)"
fill="#000000" stroke="none">
<path d="M6366 8734 c-4 -9 -9 -14 -13 -11 -3 4 -11 2 -18 -3 -6 -5 -28 -11
-47 -12 -20 -2 -34 -6 -31 -10 2 -5 -3 -8 -11 -8 -9 0 -16 -4 -16 -10 0 -5 -7
-7 -15 -4 -8 4 -15 1 -15 -6 0 -6 -4 -9 -9 -6 -12 8 -73 -19 -64 -28 4 -4 0
-4 -10 0 -10 3 -17 1 -17 -6 0 -6 -4 -9 -9 -6 -13 8 -83 -29 -74 -39 4 -4 3
-5 -4 -1 -6 3 -14 2 -18 -4 -3 -5 -15 -10 -26 -10 -10 0 -19 -5 -19 -11 0 -6
-6 -9 -14 -6 -8 3 -17 -1 -20 -9 -3 -9 -10 -13 -15 -10 -5 3 -14 -1 -21 -9 -7
-8 -21 -15 -32 -15 -10 0 -17 -4 -14 -9 3 -5 -5 -12 -19 -15 -14 -4 -25 -11
-25 -17 0 -6 -4 -7 -10 -4 -5 3 -10 1 -10 -4 0 -6 -6 -11 -13 -11 -8 0 -27
-13 -43 -30 -16 -16 -35 -30 -41 -30 -7 0 -13 -5 -13 -12 0 -6 -3 -9 -6 -5 -4
3 -13 -1 -21 -9 -8 -8 -19 -12 -24 -9 -5 4 -6 -1 -3 -9 4 -9 1 -16 -6 -16 -7
0 -23 -10 -35 -22 -35 -36 -76 -68 -85 -68 -5 0 -12 -9 -15 -20 -4 -11 -11
-17 -17 -14 -7 5 -9 1 -5 -9 3 -9 3 -16 -1 -16 -19 3 -33 -2 -27 -10 3 -5 -4
-13 -16 -16 -11 -4 -18 -9 -15 -13 7 -6 -35 -38 -45 -35 -4 1 -4 -7 -1 -19 3
-12 1 -19 -5 -15 -5 3 -15 -3 -23 -13 -8 -10 -18 -16 -23 -13 -6 3 -7 1 -4 -4
4 -6 -9 -29 -29 -51 -19 -23 -35 -44 -35 -49 0 -4 -7 -12 -15 -16 -8 -5 -12
-12 -9 -17 3 -5 -4 -11 -15 -15 -11 -3 -19 -10 -17 -15 2 -9 -18 -43 -43 -70
-8 -9 -16 -23 -18 -31 -2 -8 -8 -15 -13 -17 -5 -2 -9 -8 -9 -14 0 -6 -8 -17
-17 -25 -10 -8 -12 -11 -5 -8 11 6 11 3 0 -14 -7 -12 -16 -21 -21 -21 -4 0 -6
-4 -3 -9 3 -5 0 -14 -8 -20 -8 -7 -17 -23 -20 -37 -4 -15 -11 -22 -18 -18 -7
5 -9 2 -5 -9 4 -10 0 -20 -11 -26 -9 -6 -14 -11 -9 -11 4 0 0 -15 -10 -32 -9
-18 -16 -36 -15 -40 1 -5 -3 -8 -9 -8 -5 0 -8 -4 -4 -9 3 -5 0 -15 -7 -23 -7
-7 -13 -17 -14 -23 -1 -25 -17 -65 -26 -65 -5 0 -6 -4 -3 -10 3 -5 1 -19 -5
-31 -7 -11 -14 -33 -16 -47 -3 -15 -9 -31 -14 -37 -4 -5 -11 -27 -15 -47 -4
-21 -11 -38 -16 -38 -4 0 -6 -9 -4 -20 2 -11 0 -20 -4 -20 -5 0 -8 -10 -7 -22
1 -13 -4 -29 -10 -35 -7 -7 -11 -24 -10 -38 2 -14 -1 -25 -5 -25 -5 0 -8 -3
-8 -7 1 -5 0 -10 -1 -13 -3 -8 -10 -43 -14 -70 -2 -14 -5 -25 -6 -25 -2 0 -8
-31 -14 -70 -7 -48 -16 -64 -33 -58 -10 4 -14 2 -10 -4 4 -6 -4 -9 -23 -7 -16
2 -32 -1 -35 -6 -4 -6 -11 -8 -16 -5 -5 4 -9 1 -9 -5 0 -7 -6 -10 -12 -7 -7 2
-20 0 -30 -4 -15 -8 -24 2 -33 34 -2 4 -4 10 -5 15 -1 4 -2 10 -1 15 0 4 -4 7
-10 7 -5 0 -7 5 -4 10 3 6 1 10 -4 10 -6 0 -10 4 -9 8 4 10 -44 105 -57 114
-5 4 -6 8 -2 8 5 0 1 7 -7 16 -9 8 -16 22 -16 30 0 8 -4 12 -10 9 -5 -3 -10 1
-10 9 0 9 -5 16 -10 16 -6 0 -9 3 -8 8 3 15 -26 62 -39 62 -7 0 -13 4 -13 10
0 5 -11 20 -24 33 -14 14 -22 28 -19 31 4 3 -1 6 -11 6 -9 0 -14 5 -11 10 3 6
-1 10 -9 10 -9 0 -16 4 -16 9 0 16 -52 61 -64 54 -6 -3 -8 -3 -4 2 8 9 -15 35
-31 35 -6 0 -11 5 -11 10 0 6 -7 10 -16 10 -9 0 -12 5 -8 12 5 8 2 9 -12 4
-10 -4 -15 -4 -11 0 10 10 -31 36 -45 28 -7 -4 -8 -3 -4 4 4 7 1 12 -7 12 -7
0 -23 9 -35 20 -12 12 -22 18 -22 14 0 -4 -10 1 -22 12 -14 12 -19 14 -13 4 4
-8 -2 -5 -14 8 -12 12 -27 22 -34 22 -7 0 -6 -4 3 -10 10 -7 11 -10 2 -10 -7
0 -15 7 -18 15 -4 8 -10 12 -15 9 -5 -3 -9 0 -9 5 0 6 -8 11 -18 11 -10 0 -27
7 -38 15 -12 8 -24 11 -28 8 -3 -3 -6 0 -6 8 0 11 -2 11 -10 -1 -6 -10 -10
-11 -10 -2 0 6 -11 12 -25 12 -14 0 -25 4 -25 8 0 5 -10 8 -22 7 -13 -1 -30 4
-40 12 -11 10 -18 11 -23 3 -5 -7 -11 -8 -19 -1 -7 6 -31 12 -54 13 -23 2 -42
6 -42 9 0 3 -11 5 -25 4 -14 -2 -25 2 -25 8 0 8 -3 7 -9 -2 -5 -7 -11 -9 -14
-4 -4 6 -21 9 -39 8 -18 -2 -39 3 -47 9 -12 9 -13 8 -6 -3 6 -10 4 -12 -6 -6
-19 12 -49 14 -55 3 -3 -5 -11 -5 -17 0 -19 14 -120 14 -111 1 5 -9 3 -9 -7
-3 -21 13 -110 13 -102 0 4 -6 0 -6 -8 1 -12 10 -18 10 -29 0 -10 -9 -11 -9
-6 1 5 7 1 12 -9 12 -10 0 -13 -5 -9 -12 6 -10 4 -10 -8 0 -13 10 -17 10 -20
0 -4 -10 -8 -11 -20 -1 -8 7 -18 10 -21 7 -12 -12 -62 -13 -69 -1 -5 8 -8 7
-8 -5 0 -13 -8 -16 -35 -14 -19 2 -35 -1 -35 -5 0 -12 -23 -7 -32 6 -5 6 -8 5
-8 -2 0 -7 -7 -10 -15 -7 -8 4 -15 1 -15 -6 0 -6 -4 -9 -9 -6 -5 3 -14 -1 -20
-8 -8 -10 -9 -16 -1 -21 6 -3 8 -10 6 -14 -3 -4 17 -7 44 -7 31 -1 47 3 43 9
-4 6 -1 7 8 1 19 -12 39 -14 39 -4 0 11 44 7 52 -5 5 -6 8 -6 8 1 0 7 36 10
105 10 58 -1 105 3 105 8 0 5 6 4 13 -1 6 -5 38 -8 70 -8 31 1 57 -1 57 -5 0
-4 7 -7 15 -7 8 0 15 5 15 11 0 6 5 4 10 -4 7 -11 14 -12 27 -4 12 8 24 7 42
-2 15 -7 51 -15 82 -18 73 -7 83 -9 91 -21 5 -6 8 -4 8 5 0 12 2 12 8 2 5 -7
23 -14 40 -15 18 -1 32 -5 32 -9 0 -4 7 -5 15 -2 8 4 15 2 15 -4 0 -6 11 -9
25 -8 13 2 22 -1 19 -5 -3 -5 2 -10 10 -10 31 -3 65 -17 89 -37 10 -9 17 -11
17 -4 0 6 7 9 15 6 8 -4 13 -9 11 -13 -2 -3 7 -11 20 -18 18 -8 23 -8 18 0 -3
7 1 4 9 -5 8 -10 17 -15 20 -11 4 3 7 2 7 -4 0 -10 36 -26 53 -24 4 1 7 -6 7
-15 0 -8 4 -13 10 -9 5 3 19 -4 30 -15 11 -11 25 -18 30 -15 6 4 10 -1 10 -9
0 -8 9 -18 20 -21 11 -4 18 -11 15 -16 -4 -5 4 -9 16 -9 12 0 20 -3 16 -6 -8
-8 18 -34 33 -34 6 0 8 -4 5 -10 -3 -5 2 -10 11 -10 10 0 15 -3 11 -6 -3 -3 4
-16 16 -29 38 -38 67 -75 60 -75 -3 0 4 -8 15 -19 12 -10 22 -23 22 -30 0 -6
5 -11 10 -11 6 0 10 -5 10 -11 0 -6 9 -24 21 -40 18 -26 26 -44 28 -72 1 -5 5
-6 10 -2 6 3 8 -4 6 -15 -2 -11 0 -20 6 -20 5 0 9 -7 9 -15 0 -15 -13 -19 -62
-15 -18 1 -28 -4 -28 -12 0 -11 -2 -10 -9 1 -6 9 -11 10 -15 3 -4 -6 -14 -8
-23 -5 -12 5 -14 3 -8 -7 5 -9 4 -11 -4 -6 -6 4 -19 2 -28 -6 -14 -11 -16 -11
-9 2 4 8 0 6 -8 -4 -9 -11 -16 -16 -16 -11 0 5 -7 -1 -16 -13 -9 -13 -21 -21
-27 -19 -7 2 -18 -3 -25 -12 -10 -12 -12 -13 -6 -1 7 13 5 13 -9 1 -9 -7 -17
-10 -17 -6 0 5 -8 -2 -19 -13 -10 -12 -21 -19 -25 -15 -3 3 -6 1 -6 -6 0 -7
-7 -11 -14 -8 -10 4 -13 1 -9 -8 3 -8 -2 -18 -11 -21 -9 -3 -16 -12 -16 -19 0
-7 -7 -15 -15 -19 -8 -3 -15 -12 -15 -21 0 -8 -4 -15 -10 -15 -5 0 -10 -9 -10
-20 0 -11 -4 -20 -8 -20 -4 0 -8 -10 -9 -22 -1 -11 -6 -24 -10 -27 -5 -3 -8
-19 -8 -34 1 -16 -2 -30 -6 -33 -4 -2 -6 -15 -4 -29 1 -14 -1 -25 -4 -25 -3 0
-5 -33 -4 -72 1 -40 2 -73 3 -73 2 0 5 -23 11 -77 2 -16 7 -28 11 -28 4 0 7
-3 6 -7 -1 -5 4 -24 11 -43 8 -19 15 -37 16 -40 12 -31 22 -48 38 -62 14 -12
16 -18 6 -18 -7 0 -2 -8 11 -17 14 -9 29 -23 33 -30 5 -7 12 -11 17 -8 4 3 11
-2 14 -11 3 -8 10 -13 15 -10 5 3 7 -3 4 -14 -3 -11 -9 -18 -13 -15 -4 3 -11
-2 -14 -10 -3 -8 -11 -14 -18 -13 -7 2 -12 -3 -10 -11 2 -11 0 -12 -10 -4 -15
12 -42 -9 -30 -23 4 -5 -1 -2 -10 5 -13 10 -18 10 -18 2 0 -7 -4 -9 -10 -6 -5
3 -10 1 -10 -5 0 -6 -4 -8 -10 -5 -5 3 -10 1 -10 -5 0 -6 -11 -8 -25 -6 -17 3
-23 1 -19 -6 5 -7 1 -9 -9 -5 -10 3 -17 2 -17 -3 0 -5 -6 -7 -13 -4 -8 3 -18
-1 -24 -8 -17 -22 -11 -48 14 -54 12 -4 21 -9 19 -13 -2 -3 2 -12 10 -19 8 -7
14 -10 14 -7 0 3 11 -4 25 -17 38 -36 55 -49 55 -43 0 3 9 -4 20 -15 12 -12
24 -19 29 -16 4 3 13 -4 21 -14 8 -10 17 -17 22 -14 16 10 39 -25 32 -51 -3
-13 -10 -22 -15 -19 -9 5 -13 -11 -9 -31 1 -5 -1 -7 -5 -3 -8 8 -35 -15 -35
-29 0 -5 -9 -15 -20 -23 -11 -8 -20 -20 -20 -27 0 -7 -6 -12 -12 -10 -7 1 -12
-3 -11 -10 2 -6 -6 -15 -17 -18 -11 -4 -18 -11 -15 -16 4 -5 -1 -9 -9 -9 -9 0
-16 -7 -16 -16 0 -9 -5 -12 -12 -8 -8 5 -9 2 -5 -10 4 -9 3 -14 -2 -11 -5 3
-12 1 -16 -5 -4 -6 -11 -8 -16 -5 -5 3 -7 0 -4 -7 3 -8 -7 -19 -25 -26 -17 -8
-27 -18 -24 -24 4 -6 2 -8 -3 -5 -6 4 -23 -5 -39 -19 -16 -13 -37 -23 -46 -20
-10 2 -16 -1 -15 -7 1 -6 -4 -12 -10 -13 -7 -1 -16 -3 -20 -4 -5 -1 -12 -3
-18 -4 -5 -1 -18 -6 -28 -10 -9 -5 -26 -6 -37 -3 -11 3 -20 1 -20 -4 0 -6 -8
-5 -20 1 -13 7 -20 7 -20 1 0 -6 -7 -8 -15 -5 -8 4 -12 11 -9 16 4 6 -1 6 -13
-1 -14 -7 -23 -7 -31 1 -7 7 -12 8 -12 3 0 -4 -10 0 -22 11 -14 13 -19 14 -14
4 7 -13 6 -13 -6 0 -7 8 -20 16 -28 18 -8 2 -17 8 -18 13 -2 5 -7 7 -12 4 -5
-3 -14 8 -21 24 -8 17 -16 26 -19 20 -4 -5 -12 7 -20 26 -8 19 -17 35 -22 35
-4 0 -8 8 -8 18 0 10 -4 22 -10 28 -5 5 -10 26 -12 47 -1 20 -5 37 -8 37 -3 0
-5 44 -3 98 2 53 4 109 4 125 0 15 3 27 7 27 5 0 7 14 6 30 -1 17 1 30 6 30 4
0 6 11 5 25 -2 14 1 25 6 25 4 0 6 7 3 15 -4 8 -2 15 3 15 5 0 10 12 11 26 1
14 5 31 9 37 4 7 9 23 11 37 2 13 8 27 14 31 5 3 9 8 7 10 -1 2 1 15 5 29 5
14 8 28 7 33 -1 4 4 7 10 7 5 0 8 4 4 9 -3 5 -1 12 5 16 16 10 12 52 -6 59
-10 4 -13 2 -8 -7 5 -8 2 -7 -9 2 -15 11 -24 3 -14 -13 1 -2 -5 -12 -13 -22
-9 -11 -22 -32 -29 -49 -7 -16 -21 -43 -29 -60 -9 -16 -15 -30 -13 -30 4 0 -9
-37 -20 -57 -5 -10 -9 -26 -9 -36 0 -10 -3 -22 -7 -26 -7 -7 -14 -31 -16 -58
-1 -10 -4 -18 -7 -18 -4 0 -7 -6 -8 -12 0 -7 -4 -26 -7 -43 -3 -16 -6 -36 -7
-42 -1 -7 -6 -13 -12 -13 -6 0 -4 -5 4 -10 8 -5 11 -10 5 -10 -6 0 -10 -25 -9
-58 0 -31 -3 -64 -7 -73 -5 -9 -5 -19 -1 -23 3 -4 7 -23 9 -43 1 -20 5 -48 9
-62 4 -14 9 -33 11 -41 3 -8 5 -23 6 -32 1 -10 5 -18 9 -18 4 0 8 -7 8 -15 0
-8 5 -15 11 -15 5 0 8 -4 4 -9 -3 -6 2 -14 10 -19 9 -5 17 -16 19 -25 3 -19
41 -59 49 -50 3 3 12 -4 19 -16 7 -12 17 -21 22 -21 5 0 17 -9 27 -21 10 -11
22 -18 27 -15 6 3 13 -1 16 -10 3 -8 10 -13 15 -9 5 3 12 1 16 -5 4 -6 11 -8
16 -5 5 4 9 3 9 -2 0 -4 14 -9 31 -10 17 -1 37 -7 44 -13 10 -8 15 -8 20 1 6
8 10 7 16 -2 7 -12 9 -12 9 0 0 10 3 11 14 2 8 -7 17 -8 20 -3 3 5 22 9 42 10
20 1 43 7 50 13 11 9 14 8 14 -2 0 -9 3 -10 8 -4 4 6 14 11 22 13 8 2 17 8 18
13 3 6 10 5 18 -2 11 -9 14 -8 14 5 0 10 5 14 10 11 6 -3 13 1 16 10 5 11 10
13 19 5 16 -13 30 4 19 22 -4 7 -3 8 5 4 6 -4 24 0 39 10 15 10 30 17 35 16 4
-1 7 5 7 14 0 8 4 13 8 10 5 -3 31 15 58 39 27 25 52 45 57 45 4 0 7 7 7 15 0
8 7 15 15 15 8 0 15 7 15 16 0 8 4 13 9 10 5 -3 12 1 15 10 3 8 11 12 17 8 8
-4 9 -3 5 5 -4 6 0 14 8 17 9 3 14 10 11 14 -3 4 2 11 11 14 8 3 13 10 9 15
-3 5 4 12 15 16 11 3 19 12 17 18 -1 7 4 11 10 10 7 -2 12 0 12 5 -3 20 2 32
14 29 6 -1 11 4 9 11 -1 8 7 16 18 19 11 3 17 9 14 14 -3 5 2 6 10 3 9 -3 16
-10 16 -15 0 -5 7 -9 15 -9 10 0 15 -10 15 -28 0 -15 5 -33 11 -39 8 -8 8 -13
0 -17 -8 -5 -8 -13 -1 -26 6 -11 12 -34 13 -52 2 -18 6 -38 9 -44 4 -6 9 -21
12 -35 4 -25 13 -51 26 -84 18 -43 23 -60 22 -67 -1 -5 2 -8 8 -8 5 0 7 -7 4
-15 -4 -8 -1 -15 5 -15 6 0 11 -14 11 -31 0 -17 -4 -28 -10 -24 -5 3 -10 0
-10 -7 -1 -17 -35 -58 -50 -58 -6 0 -8 -5 -5 -10 3 -6 -1 -13 -9 -16 -9 -3
-16 -13 -16 -21 0 -8 -4 -12 -8 -9 -5 3 -19 -6 -30 -19 -12 -14 -27 -25 -33
-25 -5 0 -7 -4 -4 -10 6 -9 -6 -13 -21 -7 -4 1 -11 -8 -15 -21 -5 -13 -13 -21
-18 -18 -5 4 -17 -1 -25 -10 -9 -8 -16 -12 -16 -7 0 4 -5 0 -11 -10 -6 -9 -14
-15 -20 -12 -5 4 -9 1 -9 -5 0 -6 -4 -9 -9 -5 -6 3 -14 -3 -20 -12 -8 -14 -11
-15 -11 -3 0 12 -4 10 -15 -4 -10 -13 -15 -15 -15 -6 0 9 -4 8 -13 -5 -8 -10
-19 -15 -25 -11 -7 4 -12 2 -12 -5 0 -7 -3 -10 -6 -7 -3 4 -19 2 -36 -3 -21
-6 -36 -5 -45 3 -11 8 -12 7 -7 -6 4 -11 2 -15 -7 -11 -16 6 -104 16 -136 16
-12 -1 -27 7 -32 17 -8 13 -10 14 -11 2 0 -9 -3 -11 -8 -5 -12 17 -65 49 -57
34 5 -8 -4 -1 -18 14 -15 15 -32 25 -37 22 -6 -3 -10 1 -10 9 0 8 -9 18 -20
21 -11 3 -20 13 -20 21 0 8 -4 13 -9 9 -5 -3 -18 6 -29 20 -11 14 -25 25 -31
25 -10 0 -15 14 -12 32 0 5 -2 7 -7 7 -18 -3 -33 2 -28 10 3 4 -6 13 -19 19
-15 7 -25 20 -25 32 0 11 -3 19 -7 18 -5 -2 -18 5 -31 14 -17 11 -20 17 -10
21 9 4 10 6 1 6 -18 1 -53 33 -53 48 0 7 -3 12 -7 10 -5 -1 -8 1 -8 5 0 10
-48 44 -57 40 -5 -1 -8 5 -8 14 0 9 -5 12 -12 8 -7 -4 -10 -4 -6 0 9 11 -81
98 -94 90 -6 -4 -8 -3 -5 3 7 11 -28 45 -37 36 -3 -4 -6 2 -6 11 0 12 -5 16
-16 12 -8 -3 -13 -2 -10 3 3 5 -12 18 -34 29 -22 10 -37 22 -33 26 3 3 -5 6
-19 6 -15 0 -28 5 -30 11 -2 5 -10 11 -18 13 -8 2 -23 6 -32 10 -9 4 -22 4
-29 0 -7 -4 -9 -3 -5 4 3 6 2 13 -4 17 -5 3 -10 1 -10 -5 0 -6 -5 -8 -10 -5
-6 4 -7 12 -3 18 5 9 3 9 -8 0 -8 -6 -20 -8 -27 -4 -7 4 -47 6 -90 4 -99 -5
-102 -5 -97 -13 4 -6 -33 -19 -68 -24 -4 -1 -12 -8 -17 -16 -5 -8 -10 -12 -10
-8 0 11 -80 -32 -80 -44 0 -5 -5 -6 -10 -3 -6 4 -10 -5 -10 -20 0 -15 4 -24
10 -20 6 3 10 1 10 -5 0 -7 6 -8 19 -1 10 6 21 7 25 4 3 -3 6 -1 6 5 0 6 14
17 30 26 19 9 28 10 24 3 -4 -7 3 -2 14 10 13 13 31 20 47 19 14 -2 25 0 25 4
0 4 7 11 16 14 10 4 13 2 8 -6 -5 -7 -3 -8 6 -3 18 11 101 12 107 1 3 -4 9 -2
14 5 6 10 9 11 9 2 0 -7 9 -13 21 -13 13 0 18 -4 13 -12 -5 -9 -2 -9 9 1 12 9
17 10 17 2 0 -7 5 -9 10 -6 6 3 13 -1 16 -9 3 -9 11 -13 17 -9 5 3 16 -2 24
-12 7 -11 13 -14 13 -7 0 6 11 0 25 -14 14 -14 30 -22 37 -18 7 4 8 3 4 -4 -4
-7 -1 -12 9 -12 9 0 13 -4 10 -10 -3 -5 0 -10 7 -10 7 0 28 -16 46 -35 18 -20
37 -33 42 -30 6 3 10 -3 10 -14 0 -19 11 -26 33 -22 5 1 6 -3 3 -8 -4 -5 4
-17 16 -25 12 -9 19 -16 15 -16 -4 0 7 -15 25 -34 87 -91 116 -125 110 -130
-3 -3 2 -6 12 -6 9 0 14 -4 11 -10 -3 -5 -2 -10 4 -10 5 0 13 -9 16 -20 4 -11
11 -18 16 -15 5 4 9 -1 9 -9 0 -9 7 -16 15 -16 8 0 15 -4 15 -8 0 -14 36 -52
49 -52 6 0 10 -4 8 -9 -1 -4 17 -27 41 -50 23 -22 42 -39 42 -36 0 3 8 -3 18
-12 11 -10 17 -22 14 -27 -3 -5 0 -6 7 -1 7 4 22 -1 34 -13 26 -24 96 -61 127
-67 12 -2 29 -10 38 -17 12 -10 14 -10 8 0 -4 6 -3 12 3 12 5 0 13 -5 17 -11
4 -8 9 -7 15 2 5 9 9 9 9 3 0 -7 14 -14 30 -16 25 -4 30 -2 25 11 -4 12 -2 11
9 -2 10 -13 16 -15 21 -7 6 9 10 9 16 -1 8 -12 10 -12 18 0 7 11 9 11 14 0 3
-8 6 -9 6 -3 1 5 16 9 33 8 18 -1 37 1 43 6 5 4 18 6 28 5 9 -2 17 2 17 8 0 7
5 5 10 -3 7 -12 10 -12 10 -1 0 8 6 11 16 7 8 -3 12 -2 9 4 -3 6 5 10 19 10
14 0 26 5 26 11 0 5 5 7 10 4 6 -3 10 -2 10 3 0 6 9 8 21 5 12 -3 18 -11 15
-19 -3 -8 0 -14 6 -14 7 0 6 -5 -2 -15 -9 -11 -9 -15 -1 -15 7 0 10 -4 6 -9
-3 -5 -1 -12 4 -16 6 -3 8 -12 4 -20 -3 -8 0 -15 6 -15 6 0 11 -6 11 -14 0 -7
15 -28 32 -47 18 -19 31 -38 30 -44 -2 -5 -1 -7 3 -3 4 4 14 0 22 -8 8 -8 19
-12 24 -8 5 3 8 0 7 -8 -2 -7 7 -14 20 -16 12 -2 20 -7 17 -12 -3 -4 4 -6 15
-3 11 3 20 1 20 -4 0 -5 6 -10 13 -11 64 -4 136 -39 119 -57 -4 -5 -2 -5 5 -2
6 4 18 1 26 -7 8 -8 17 -12 21 -9 3 4 6 -1 6 -10 0 -11 8 -17 25 -17 14 0 25
-4 25 -10 0 -5 11 -10 25 -10 14 0 25 -5 25 -11 0 -5 5 -7 10 -4 6 3 10 1 10
-5 0 -6 5 -8 10 -5 6 3 10 2 10 -3 0 -6 10 -8 22 -4 12 3 19 1 15 -4 -3 -5 10
-9 29 -8 19 1 34 -2 34 -6 0 -4 14 -6 31 -5 24 2 29 -1 25 -14 -5 -13 -3 -12
8 2 8 11 17 14 20 8 4 -5 18 -8 31 -5 14 2 25 0 25 -6 0 -12 22 -9 32 5 5 6 8
6 8 -1 0 -6 11 -10 25 -9 14 2 27 -1 31 -6 3 -5 13 -5 25 1 10 6 19 7 19 3 0
-4 17 -8 37 -7 21 1 52 -7 70 -17 19 -10 35 -14 38 -8 4 5 17 9 31 9 18 0 23
-4 18 -12 -5 -9 -2 -9 9 1 13 10 17 10 17 1 0 -7 7 -10 16 -6 11 4 15 2 11 -7
-3 -8 1 -14 9 -14 7 0 11 4 8 9 -6 9 10 11 19 2 8 -8 -16 -33 -25 -27 -5 2 -8
-1 -8 -7 0 -6 -4 -9 -9 -6 -5 3 -14 -1 -21 -9 -6 -7 -18 -11 -26 -8 -9 3 -14
-1 -14 -12 0 -9 -4 -14 -8 -11 -5 3 -15 -4 -22 -15 -8 -10 -24 -19 -35 -20
-11 0 -14 -3 -7 -6 10 -4 10 -8 -3 -17 -18 -13 -29 -56 -14 -56 6 0 7 -5 3
-12 -4 -6 -3 -8 4 -4 6 3 14 1 18 -5 4 -8 9 -7 15 2 7 11 9 11 9 -1 0 -10 3
-11 8 -4 4 7 25 15 46 18 22 4 45 11 52 17 8 7 14 7 19 -1 4 -7 11 -7 18 -2 7
5 23 8 37 8 24 -1 25 -3 22 -56 -2 -30 -8 -58 -14 -61 -7 -4 -6 -8 2 -11 8 -2
7 -8 -6 -18 -16 -13 -17 -13 -10 0 4 8 0 6 -8 -4 -11 -14 -16 -15 -16 -6 0 10
-3 11 -11 3 -6 -6 -18 -9 -25 -6 -8 3 -14 0 -14 -6 0 -7 -10 -9 -25 -7 -14 3
-23 1 -20 -5 4 -5 1 -9 -5 -9 -6 0 -9 -4 -6 -9 4 -5 -1 -8 -11 -7 -19 3 -54
-24 -47 -36 3 -4 -3 -8 -13 -8 -11 0 -14 -3 -7 -8 6 -4 10 -15 8 -25 -1 -9 2
-15 6 -12 5 3 12 0 15 -5 5 -7 12 -5 22 7 8 10 12 13 9 7 -3 -7 3 -14 14 -17
11 -3 20 -1 20 5 0 5 4 7 9 3 5 -3 12 -1 16 4 8 14 36 2 29 -13 -3 -6 1 -4 8
5 11 13 16 14 25 4 12 -14 10 -54 -4 -64 -5 -3 -9 -17 -11 -31 -4 -44 -9 -47
-67 -47 -38 0 -60 -5 -66 -14 -5 -8 -9 -9 -9 -4 0 6 -9 11 -20 11 -13 0 -19
-5 -15 -14 3 -9 0 -12 -8 -9 -20 7 -63 -34 -64 -61 -1 -12 2 -20 8 -17 5 4 9
1 9 -6 0 -7 3 -10 6 -7 3 4 18 3 33 -2 16 -4 34 -4 42 1 8 4 19 3 26 -3 10 -8
13 -7 13 3 1 11 3 10 13 -2 7 -9 18 -14 25 -11 10 3 9 -5 -3 -34 -18 -44 -35
-65 -35 -45 0 11 -3 11 -15 1 -8 -7 -15 -8 -15 -3 0 10 -40 10 -57 0 -6 -4
-13 -2 -15 4 -3 9 -10 9 -26 0 -18 -10 -23 -9 -28 4 -6 14 -8 14 -21 -2 -8
-10 -12 -12 -8 -5 8 15 0 15 -27 1 -12 -6 -18 -7 -14 -1 3 5 -3 12 -14 15 -11
3 -18 2 -15 -3 3 -4 -2 -11 -11 -14 -8 -3 -12 -2 -9 4 3 6 -1 7 -9 4 -9 -3
-13 -10 -10 -15 3 -5 -7 -4 -21 1 -17 7 -24 7 -20 0 3 -6 0 -11 -7 -11 -7 -1
-20 -2 -28 -3 -8 -1 -20 2 -26 7 -7 5 -11 3 -10 -5 0 -7 -3 -13 -9 -13 -5 0
-9 5 -7 10 1 6 -4 1 -13 -9 -8 -11 -18 -17 -21 -13 -4 4 -13 -1 -21 -11 -8 -9
-12 -12 -8 -5 4 8 -3 8 -22 -2 -15 -8 -34 -15 -40 -15 -7 0 -13 -4 -13 -9 0
-5 -10 -7 -22 -3 -17 4 -20 2 -14 -13 5 -15 4 -16 -9 -5 -12 10 -15 9 -15 -6
0 -16 -2 -17 -10 -4 -7 12 -10 12 -10 1 0 -8 -6 -11 -16 -7 -8 3 -13 2 -10 -2
3 -5 -4 -16 -15 -25 -10 -9 -19 -12 -19 -7 0 6 -5 10 -11 10 -5 0 -7 -5 -4
-10 3 -5 -2 -10 -12 -10 -17 0 -53 -32 -53 -47 0 -3 -8 -15 -17 -26 -10 -11
-12 -17 -4 -12 9 5 7 -1 -4 -19 -10 -14 -13 -26 -9 -26 5 0 2 -5 -6 -10 -11
-7 -12 -10 -2 -10 11 0 11 -3 -1 -14 -9 -9 -13 -33 -11 -72 2 -51 9 -99 14
-99 1 0 3 -9 5 -19 2 -10 9 -22 15 -26 7 -4 12 -11 12 -16 2 -22 21 -64 30
-64 5 0 6 -4 3 -10 -3 -5 -1 -10 6 -10 6 0 9 -8 6 -20 -3 -11 -2 -20 3 -20 4
0 15 -12 25 -26 9 -15 12 -23 6 -20 -19 12 -12 -9 8 -24 11 -7 17 -18 14 -24
-4 -5 1 -7 12 -2 15 5 16 4 6 -8 -10 -12 -8 -16 8 -21 12 -3 21 -13 21 -21 0
-8 10 -14 23 -14 18 0 19 -2 7 -10 -13 -8 -12 -10 2 -10 10 0 23 -9 30 -19 10
-16 15 -18 28 -8 8 6 12 7 8 3 -5 -5 1 -16 12 -23 11 -8 18 -19 14 -24 -7 -13
19 -7 28 6 4 6 8 -1 9 -15 0 -14 3 -20 6 -13 3 9 11 7 26 -7 11 -11 27 -20 35
-20 8 0 21 -8 29 -17 8 -10 12 -12 8 -6 -4 9 -1 11 9 7 9 -3 13 -10 10 -15 -3
-5 0 -9 6 -9 6 0 8 -5 5 -10 -4 -6 -3 -9 2 -8 11 4 62 -49 55 -57 -4 -3 2 -3
13 1 15 6 17 4 12 -11 -6 -15 -5 -16 8 -5 8 7 15 9 15 4 0 -10 47 -34 66 -34
7 0 14 -5 16 -10 2 -6 25 -12 51 -13 35 -1 46 -5 42 -16 -4 -11 -3 -12 10 -1
12 10 15 9 16 -6 0 -18 1 -18 9 1 5 11 9 15 9 10 1 -6 10 -11 20 -11 11 0 17
4 15 8 -3 4 2 5 10 2 9 -3 13 -11 10 -18 -3 -6 2 -2 10 8 9 11 16 16 16 10 0
-5 14 -9 30 -9 22 0 29 4 25 14 -4 10 2 8 16 -5 12 -10 19 -14 16 -8 -8 15 20
27 29 13 4 -6 11 -6 20 2 10 8 14 8 14 1 0 -6 6 -9 13 -6 7 2 24 -4 37 -16 25
-21 35 -26 25 -11 -3 5 -1 12 5 16 5 3 10 0 10 -7 0 -9 10 -13 30 -12 17 1 30
-2 30 -6 0 -13 29 -20 36 -8 4 7 3 8 -4 4 -7 -4 -12 -2 -12 3 0 12 13 14 24 4
12 -12 40 -12 48 0 5 8 8 8 8 1 0 -6 14 -11 32 -12 23 -1 28 2 18 8 -8 6 -10
10 -4 10 6 0 14 -3 18 -7 10 -10 46 -11 40 -1 -10 15 9 8 23 -9 8 -10 12 -12
8 -5 -7 13 -6 13 45 16 20 1 42 6 49 11 9 5 12 4 8 -2 -4 -7 7 -10 31 -8 26 1
37 6 36 17 -1 10 6 14 22 12 13 -1 24 3 24 9 0 5 3 8 6 4 9 -8 33 16 26 27 -3
5 0 6 7 2 9 -6 9 -12 -1 -24 -11 -15 -11 -15 3 -5 9 7 20 9 24 5 5 -4 4 -1 0
7 -6 11 -4 13 9 8 14 -6 16 -3 11 16 -7 22 -7 22 8 2 15 -20 16 -20 24 3 5 13
13 23 18 23 6 0 9 6 9 14 -1 8 3 13 9 12 7 -1 13 9 15 23 2 14 9 31 15 39 10
12 9 13 -3 6 -13 -8 -13 -7 -1 8 7 9 10 17 7 17 -4 0 -2 8 3 19 6 10 7 21 4
25 -3 3 -6 27 -6 54 1 26 -4 53 -11 61 -8 12 -8 13 2 7 9 -5 11 -1 8 16 -3 13
-5 23 -6 23 -1 0 -3 13 -5 29 -6 47 -28 130 -38 143 -5 7 -6 17 -2 23 3 5 1
10 -5 10 -7 0 -10 7 -6 15 3 8 1 15 -4 15 -6 0 -10 6 -10 14 0 7 -7 26 -14 42
-8 15 -13 31 -10 36 3 4 2 8 -3 8 -9 0 -33 48 -33 67 0 7 -3 13 -8 13 -13 0
-43 82 -36 99 4 9 8 19 8 23 1 4 7 13 14 19 6 7 12 16 12 20 0 4 16 35 35 69
19 34 33 66 30 70 -3 4 2 11 11 14 8 3 12 10 9 16 -3 5 2 10 12 11 10 0 13 3
6 5 -8 4 -7 14 5 37 9 18 20 34 25 35 4 2 5 8 1 13 -3 5 0 9 6 9 6 0 8 4 5 10
-3 5 -1 10 5 10 6 0 8 5 5 10 -3 6 1 13 10 16 13 6 14 8 3 15 -10 7 -10 9 0 9
6 0 12 7 12 15 0 8 5 15 12 15 6 0 8 3 5 7 -4 3 -1 13 6 21 10 13 9 15 -3 8
-8 -4 -7 -1 3 7 10 9 20 21 21 29 2 7 8 26 14 41 7 16 12 33 12 38 0 5 5 9 10
9 6 0 10 9 10 20 0 22 19 60 35 72 6 5 4 8 -4 8 -11 0 -11 4 2 18 10 10 14 21
11 24 -3 4 2 18 11 32 10 14 14 26 10 26 -4 0 -2 6 4 13 6 8 8 17 4 20 -3 4
-2 7 4 7 5 0 10 6 11 13 3 37 8 53 18 59 6 4 10 23 9 42 -1 20 2 34 9 33 5 -1
11 8 12 21 1 12 3 25 4 30 1 4 2 10 1 15 0 4 3 7 8 7 5 0 8 11 6 25 -1 14 1
25 6 25 4 0 11 21 15 48 3 26 10 52 13 57 4 6 8 23 9 40 1 16 7 34 12 39 14
14 12 29 -2 20 -10 -6 -10 -5 -1 8 7 8 10 18 6 21 -3 4 -2 7 3 7 5 0 10 10 11
23 1 12 4 36 7 52 9 44 15 78 15 93 1 7 6 10 11 7 6 -3 10 -1 10 5 0 6 5 8 10
5 6 -3 10 2 10 11 0 10 3 14 7 11 3 -4 12 1 20 11 8 9 11 11 7 3 -5 -9 2 -8
19 5 15 10 27 23 27 27 0 5 5 5 10 2 6 -3 16 -3 23 2 12 8 32 13 54 15 7 1 10
5 7 9 -2 4 0 10 6 14 5 3 10 0 10 -7 0 -8 4 -7 11 4 5 10 16 15 24 12 8 -4 15
-1 15 5 0 6 7 8 17 4 10 -4 14 -2 10 4 -5 7 1 9 15 5 14 -3 19 -1 14 6 -3 6
-1 14 5 18 8 4 9 3 5 -4 -5 -8 0 -11 16 -8 13 2 22 9 20 15 -2 9 3 9 18 1 16
-8 22 -8 26 4 3 8 13 13 22 12 9 -2 23 4 30 13 8 9 11 11 8 4 -4 -7 1 -9 13
-6 11 3 22 11 25 18 2 7 18 16 35 20 17 4 29 10 26 15 -5 8 42 25 59 21 5 -1
3 6 -5 15 -9 12 -9 15 -1 10 7 -4 12 -2 12 4 0 6 4 9 9 6 5 -3 12 5 15 19 4
14 12 24 18 22 7 -1 13 4 14 11 1 6 2 17 3 23 0 5 5 8 10 4 6 -3 8 4 6 15 -2
11 1 20 6 20 6 0 8 4 4 9 -3 5 -1 12 5 16 7 4 6 13 -1 27 -6 11 -7 18 -1 14 5
-3 9 20 8 59 0 37 -5 65 -11 65 -5 0 -3 5 5 10 10 6 11 10 3 10 -7 0 -13 8
-13 18 0 10 -7 28 -16 40 -8 12 -12 22 -7 22 4 1 -3 7 -16 14 -16 9 -20 16
-12 20 6 4 9 12 5 17 -3 6 6 21 21 35 15 14 25 28 21 31 -3 3 1 11 8 17 19 15
60 90 44 80 -10 -6 -10 -5 0 8 7 9 14 36 15 59 3 50 13 72 29 63 8 -5 9 -1 5
10 -5 13 -3 17 6 13 7 -3 19 4 26 14 6 11 17 17 23 13 7 -4 8 -3 4 4 -6 10 31
38 46 34 4 -1 4 6 1 16 -3 9 -3 14 2 10 8 -8 35 15 35 30 0 5 10 17 23 26 12
9 15 14 7 10 -8 -4 -3 5 12 20 15 16 25 33 22 38 -4 6 -1 14 6 18 29 18 10
235 -22 248 -4 2 -8 10 -8 18 0 8 -4 14 -10 14 -5 0 -10 7 -10 15 0 8 -4 15
-10 15 -5 0 -10 5 -10 11 0 17 -79 91 -90 84 -6 -4 -10 -3 -9 2 4 22 -3 33
-21 33 -11 0 -20 5 -20 10 0 6 -6 9 -12 8 -7 -2 -12 2 -11 8 1 6 -4 11 -12 11
-8 0 -12 -4 -9 -9 3 -4 -10 1 -29 12 -18 11 -46 21 -60 22 -15 1 -27 5 -27 9
0 6 -17 9 -53 10 -10 0 -29 4 -42 9 -16 6 -27 6 -31 -1 -4 -7 -10 -7 -18 0 -7
6 -16 8 -20 4 -11 -11 -36 -12 -36 -2 0 6 -5 7 -11 3 -9 -5 -105 -14 -171 -15
-10 0 -18 -5 -18 -11 0 -7 -4 -7 -13 1 -8 6 -17 7 -23 2 -5 -5 -29 -12 -53
-15 -25 -3 -48 -12 -53 -18 -6 -10 -8 -10 -8 1 0 11 -4 9 -15 -5 -9 -12 -14
-14 -15 -6 0 8 -5 10 -12 5 -7 -4 -23 -8 -36 -8 -13 0 -26 -5 -30 -10 -4 -6
-16 -12 -27 -13 -11 -2 -23 -9 -27 -15 -6 -9 -8 -8 -8 1 0 10 -5 9 -22 -2 -15
-9 -30 -11 -43 -6 -11 5 -14 9 -6 9 8 1 11 8 8 20 -2 10 -1 25 4 32 4 8 3 19
-3 26 -6 8 -7 13 -1 13 6 0 9 11 8 25 -2 14 2 25 8 25 8 0 8 3 2 8 -12 8 -13
32 -2 50 5 7 4 12 -2 12 -13 0 -10 22 4 32 7 5 6 8 0 8 -6 0 -11 9 -12 20 -1
13 2 18 10 13 7 -4 6 1 -2 11 -13 15 -13 19 0 27 9 6 10 9 2 9 -8 0 -11 11 -9
30 2 17 0 30 -4 30 -6 0 -6 35 0 50 1 3 1 10 0 15 -1 6 -4 20 -6 33 -2 12 -7
34 -10 50 -3 15 -6 34 -6 42 0 8 -6 21 -12 29 -9 12 -8 13 3 6 11 -6 12 -5 5
6 -4 8 -10 20 -11 27 -2 6 -4 18 -6 25 -1 6 -6 18 -10 25 -5 6 -5 12 0 12 4 0
2 4 -6 9 -8 5 -20 7 -27 4 -13 -5 -27 -43 -16 -43 4 0 8 -10 8 -22 1 -13 5
-41 8 -63 4 -22 8 -62 10 -90 2 -27 5 -50 6 -50 9 0 6 -113 -3 -124 -9 -11 -9
-13 -1 -8 8 5 12 -11 11 -53 -1 -33 -5 -60 -10 -60 -4 0 -5 -6 -1 -12 11 -18
12 -48 2 -54 -4 -3 -8 -22 -8 -43 0 -20 -6 -43 -12 -50 -11 -11 -10 -12 2 -6
12 6 12 5 3 -5 -6 -7 -9 -19 -6 -26 3 -8 0 -14 -6 -14 -6 0 -8 -7 -4 -17 4
-10 2 -14 -4 -10 -6 4 -9 -3 -7 -18 1 -14 -2 -23 -7 -19 -5 3 -9 1 -9 -5 0 -6
-7 -8 -15 -5 -8 4 -15 15 -15 25 0 10 -4 19 -10 19 -5 0 -10 8 -10 19 0 10 -7
24 -15 31 -8 7 -15 17 -15 22 0 24 -129 168 -150 168 -6 0 -9 3 -7 8 3 4 -1
13 -9 20 -8 7 -14 10 -14 7 0 -6 -17 7 -55 43 -14 12 -28 23 -32 25 -5 1 -7 4
-6 7 1 3 -8 7 -19 7 -12 1 -24 6 -27 10 -9 11 -42 32 -72 44 -14 5 -37 28 -50
51 -13 23 -34 58 -46 77 -13 20 -29 47 -35 61 -7 14 -20 32 -28 41 -8 9 -22
26 -30 39 -8 12 -31 40 -51 61 -21 22 -32 40 -25 43 6 2 4 5 -4 5 -8 1 -29 17
-45 36 -17 19 -35 35 -42 35 -7 0 -16 6 -20 13 -13 20 -57 54 -49 37 7 -13 6
-13 -6 0 -7 8 -22 22 -32 30 -18 13 -19 13 -11 0 4 -8 -4 -4 -20 10 -16 14
-24 18 -20 10 5 -9 -1 -7 -15 5 -14 12 -20 14 -15 5 8 -13 7 -13 -10 0 -10 8
-20 14 -22 13 -1 -2 -4 -3 -5 -2 -2 1 -14 2 -28 3 -14 0 -30 5 -37 9 -6 4 -14
3 -17 -2 -4 -5 -17 -8 -31 -6 -14 1 -25 -1 -25 -6 0 -4 -9 -6 -20 -4 -11 2
-26 -2 -34 -10 -7 -8 -16 -12 -19 -9 -7 8 -57 -18 -51 -27 3 -5 -2 -6 -10 -3
-9 3 -16 1 -16 -6 0 -6 -5 -8 -10 -5 -6 3 -13 -1 -16 -9 -3 -9 -10 -13 -15
-10 -5 3 -9 -1 -9 -9 0 -8 -9 -17 -21 -20 -12 -3 -18 -10 -15 -15 3 -5 -5 -14
-19 -20 -26 -12 -26 -8 -4 83 5 22 11 52 14 67 2 15 9 36 14 46 6 11 8 22 5
25 -3 2 2 21 10 41 8 20 13 36 11 36 -2 0 5 26 16 58 11 31 22 64 24 74 2 9
11 30 19 47 9 17 14 31 10 31 -3 0 5 17 18 38 12 20 21 37 20 37 -2 0 2 14 9
30 7 17 12 33 11 38 -1 4 3 7 9 7 5 0 7 5 4 10 -3 6 -1 10 5 10 6 0 9 4 6 9
-3 5 1 14 9 21 8 7 13 16 10 20 -3 5 -1 11 5 15 6 4 8 11 5 16 -4 5 -2 9 4 9
6 0 19 18 29 40 10 22 20 38 23 36 3 -3 6 5 6 17 1 12 10 27 19 34 10 7 14 13
8 13 -5 0 -5 3 1 8 6 4 24 27 40 52 17 25 33 47 38 48 4 2 7 10 7 18 0 8 5 14
10 14 6 0 10 6 10 14 0 8 7 16 15 20 8 3 15 12 15 21 0 8 5 15 11 15 5 0 7 5
4 10 -4 6 -3 10 2 9 20 -3 34 2 28 10 -3 6 3 14 12 20 10 6 15 11 11 11 -5 0
11 19 34 42 24 24 46 42 50 41 8 -3 12 14 8 32 -1 5 1 7 5 4 3 -4 16 3 29 15
51 49 95 83 101 78 3 -3 5 3 5 13 0 10 3 16 6 12 4 -3 15 4 25 16 10 12 18 18
19 13 0 -4 12 5 28 21 15 17 35 29 44 27 11 -1 15 3 11 12 -3 8 -2 14 3 13 14
-3 44 12 40 20 -3 4 4 7 15 8 10 1 30 13 43 28 17 18 26 22 29 13 3 -8 6 -6 6
5 1 10 6 15 11 12 6 -3 10 -1 10 5 0 6 4 9 8 6 5 -3 19 4 30 15 12 11 22 18
22 15 0 -3 33 12 73 33 39 21 78 36 85 34 6 -3 12 2 12 11 0 9 6 13 14 10 8
-3 17 0 21 5 3 6 11 9 16 6 5 -4 9 -1 9 5 0 6 5 8 10 5 6 -3 10 -2 10 3 0 5 6
9 13 10 20 1 41 7 52 13 6 4 18 5 28 4 9 -2 15 1 11 6 -3 5 7 9 21 9 15 0 24
4 20 10 -3 6 1 10 10 10 11 0 15 5 12 14 -3 7 0 19 6 25 19 19 -44 13 -66 -6
-11 -10 -17 -13 -14 -6 4 6 3 14 -2 17 -5 3 -12 -1 -15 -10z m-2179 -2209 c0
-8 -5 -15 -11 -15 -6 0 -4 -5 4 -10 8 -5 10 -10 4 -10 -18 0 -24 12 -13 31 12
23 16 24 16 4z m38 -5 c-3 -5 3 -10 15 -10 18 0 19 -3 9 -21 -6 -12 -7 -19 -1
-15 18 11 21 -22 3 -38 -24 -21 -40 -3 -35 39 2 24 1 27 -7 13 -6 -10 -15 -18
-21 -18 -7 0 -7 4 1 13 6 8 8 17 4 20 -3 4 -1 7 6 7 7 0 9 5 6 10 -3 6 1 10
10 10 9 0 13 -4 10 -10z m2895 -485 c6 -3 10 -1 10 6 0 9 3 9 14 0 10 -8 16
-9 21 -2 4 7 15 5 33 -7 14 -9 23 -12 19 -5 -5 8 -1 11 13 10 11 -1 20 -4 20
-8 0 -4 9 -5 20 -2 12 3 20 0 20 -8 0 -7 3 -9 7 -6 3 4 13 1 21 -6 11 -8 13
-8 9 0 -5 8 -1 8 18 0 14 -7 25 -19 25 -27 0 -12 2 -12 9 -2 6 10 16 5 41 -20
19 -18 30 -26 25 -18 -5 9 0 7 14 -4 12 -11 19 -26 17 -33 -3 -7 -1 -12 5 -10
5 1 17 -11 27 -28 9 -16 22 -33 27 -37 6 -4 7 -8 3 -8 -4 0 0 -12 7 -27 11
-21 12 -29 2 -35 -7 -4 -7 -8 -2 -8 9 0 12 -48 5 -57 -3 -4 -7 -20 -9 -34 0
-5 -6 -7 -13 -3 -8 5 -9 2 -5 -9 4 -11 -2 -22 -16 -32 -12 -8 -18 -15 -14 -15
4 0 -7 -14 -25 -32 -18 -18 -32 -36 -30 -40 1 -4 -5 -8 -13 -8 -8 0 -15 -4
-15 -8 0 -4 -9 -8 -21 -9 -15 -1 -19 3 -15 13 3 9 1 12 -4 9 -6 -3 -10 1 -10
9 0 9 -8 16 -17 17 -10 0 -13 3 -7 5 15 6 -129 154 -149 154 -9 0 -18 9 -22
19 -4 12 -12 18 -21 14 -8 -3 -14 1 -14 11 0 9 -5 16 -11 16 -5 0 -7 -6 -3
-12 4 -7 -2 -5 -14 5 -11 11 -25 16 -31 13 -5 -3 -11 -2 -13 4 -1 5 -13 11
-25 13 -12 2 -26 7 -30 12 -5 4 -1 5 7 0 8 -5 12 -5 8 0 -5 5 -20 9 -35 11
-16 1 -41 5 -58 8 -16 4 -41 8 -55 9 -14 1 -30 6 -37 10 -6 4 -15 2 -19 -4 -4
-8 -9 -7 -15 2 -7 11 -9 11 -9 1 0 -9 -5 -10 -19 -2 -14 7 -22 7 -26 0 -5 -8
-11 -8 -19 -1 -7 6 -16 7 -20 3 -4 -4 -22 -8 -39 -9 -30 -2 -50 -5 -109 -18
-13 -2 -30 -6 -38 -7 -8 -2 -21 -7 -27 -11 -7 -5 -17 -5 -23 -2 -5 3 -10 0
-10 -7 0 -9 -3 -9 -10 2 -5 8 -10 11 -10 5 0 -5 -4 -3 -9 4 -10 15 5 58 16 47
3 -3 22 3 43 14 21 11 40 16 44 13 3 -4 6 -1 6 5 0 7 9 12 20 12 11 0 20 5 20
10 0 6 8 10 18 10 11 0 32 6 48 14 16 8 36 16 44 18 8 2 18 7 21 12 4 5 20 9
37 10 17 0 28 4 25 9 -4 6 12 11 30 8 4 0 7 4 7 9 0 6 5 10 11 10 5 0 7 -6 4
-12 -4 -7 1 -4 9 6 12 15 16 16 17 5 0 -9 2 -10 5 -2 3 7 12 9 20 6 8 -3 14 1
14 8 0 11 3 11 10 -1 8 -12 10 -12 10 -1 0 11 3 11 17 0 9 -8 14 -9 10 -2 -10
16 14 22 37 11 13 -7 16 -7 12 1 -7 10 43 17 83 12 7 -2 10 2 7 8 -7 10 25 7
44 -4z m-350 -358 c0 12 17 12 37 0 6 -4 14 -3 18 2 7 12 45 10 45 -2 0 -5 7
-4 15 3 12 10 15 10 15 0 0 -8 3 -10 7 -7 3 4 13 1 21 -6 13 -9 14 -9 8 1 -4
6 -2 12 3 12 6 0 11 -4 11 -9 0 -5 9 -7 20 -4 11 3 20 1 20 -4 0 -5 7 -10 15
-11 8 -1 22 -3 30 -4 8 -1 15 -8 16 -17 0 -10 2 -12 6 -4 3 10 8 9 20 -2 8 -8
19 -12 25 -9 7 4 8 2 4 -4 -7 -12 27 -35 38 -25 3 3 6 -1 6 -10 0 -15 11 -21
32 -18 4 0 5 -6 2 -14 -4 -9 0 -15 8 -15 8 0 20 -11 26 -25 6 -14 16 -25 22
-25 5 0 10 -7 10 -15 0 -8 4 -15 9 -15 5 0 11 -11 13 -25 3 -14 1 -25 -3 -25
-5 0 -11 0 -14 0 -3 0 -16 -11 -29 -25 -13 -14 -28 -25 -33 -25 -5 0 -19 -9
-31 -20 -12 -12 -22 -18 -22 -15 0 3 -6 0 -14 -7 -8 -7 -11 -17 -8 -22 3 -5 0
-6 -7 -2 -6 4 -18 2 -26 -4 -12 -10 -15 -10 -15 0 0 7 -7 10 -15 6 -9 -3 -18
1 -21 9 -3 8 -21 20 -39 27 -19 6 -32 15 -29 19 2 5 -5 6 -16 4 -11 -2 -24 3
-30 13 -7 13 -9 14 -10 3 0 -11 -4 -9 -15 5 -8 10 -15 15 -15 9 0 -5 -4 -4 -9
4 -5 7 -20 14 -35 14 -14 0 -23 3 -20 8 3 5 -6 9 -20 9 -14 0 -26 5 -26 11 0
6 -6 9 -14 6 -8 -3 -20 1 -27 9 -9 12 -15 12 -27 2 -13 -10 -14 -10 -8 0 6 11
-11 17 -36 13 -5 0 -8 4 -8 10 0 5 -4 7 -10 4 -5 -3 -10 -2 -10 3 0 6 -9 8
-20 5 -11 -3 -20 0 -20 6 0 6 -3 10 -7 9 -5 -1 -18 1 -29 5 -21 7 -34 31 -39
71 -1 10 -9 22 -16 27 -12 7 -12 9 0 9 7 0 11 6 8 14 -4 10 0 12 15 8 13 -3
19 -1 15 5 -3 5 0 10 8 11 8 1 22 3 30 4 8 1 15 5 15 9 0 4 9 6 21 4 15 -3 19
0 16 10 -5 10 1 11 24 5 16 -5 29 -5 29 -1 0 5 14 7 30 6 17 -1 33 2 36 7 4 6
10 5 15 -3 6 -9 9 -10 9 -2z m-144 -380 c4 -4 17 -7 29 -7 11 0 27 -6 34 -12
11 -11 12 -10 6 2 -6 12 -5 13 6 3 7 -7 21 -13 31 -13 10 0 18 -4 18 -9 0 -6
9 -8 20 -6 13 2 20 -2 20 -11 0 -8 5 -14 11 -14 5 0 7 6 3 13 -6 10 -4 10 7 0
7 -7 21 -13 32 -13 10 0 15 -4 12 -10 -4 -6 5 -10 19 -10 14 0 26 -4 26 -10 0
-5 7 -10 15 -10 23 0 18 -18 -12 -45 -21 -17 -31 -20 -41 -13 -9 8 -11 7 -7
-5 4 -8 1 -18 -6 -23 -8 -5 -10 -3 -5 7 4 8 1 6 -7 -4 -9 -10 -24 -25 -34 -34
-10 -8 -12 -11 -4 -7 9 5 12 3 7 -4 -4 -7 -14 -12 -23 -12 -9 0 -13 -6 -9 -15
3 -8 0 -14 -7 -12 -7 1 -11 -3 -10 -10 2 -7 -4 -10 -12 -7 -10 4 -15 0 -15
-15 0 -12 -6 -21 -16 -21 -8 0 -12 -4 -9 -10 3 -5 1 -10 -5 -10 -5 0 -19 -15
-30 -32 l-20 -33 -1 30 c-1 17 -1 34 0 38 1 4 -4 17 -10 29 -8 16 -8 19 1 13
9 -6 9 -3 1 13 -6 11 -12 45 -13 76 -2 31 -5 56 -8 56 -3 0 -6 10 -7 23 -1 12
-5 38 -9 57 -4 19 -8 42 -8 50 -1 8 -4 20 -8 26 -8 12 27 13 38 1z m660 -22
c-1 -9 -10 -25 -19 -35 -9 -11 -15 -20 -12 -20 3 0 -3 -8 -12 -18 -22 -22 -53
-26 -53 -6 0 8 -4 14 -10 14 -5 0 -7 6 -4 14 3 9 12 12 21 9 11 -4 14 -2 9 5
-4 7 -1 12 9 12 8 0 18 7 21 15 4 8 10 13 14 10 5 -3 11 -1 15 5 10 15 24 12
21 -5z m-208 -170 c25 -24 26 -27 9 -36 -9 -6 -15 -15 -11 -20 3 -5 2 -8 -3
-7 -4 1 -18 -3 -29 -10 -12 -6 -25 -8 -29 -4 -5 4 -5 2 -2 -4 4 -7 0 -15 -9
-18 -8 -3 -13 -10 -10 -14 3 -5 -1 -9 -9 -10 -8 -1 -22 -3 -30 -4 -11 -1 -12
-4 -3 -15 6 -8 7 -13 2 -12 -22 4 -34 -2 -34 -17 0 -14 -3 -14 -15 -4 -13 11
-14 10 -9 -5 5 -13 4 -16 -4 -11 -7 4 -15 1 -18 -8 -3 -9 -10 -13 -15 -10 -5
3 -9 -2 -9 -11 0 -11 -5 -15 -15 -11 -13 5 -19 -5 -16 -26 0 -4 -9 -5 -20 -3
-18 4 -19 2 -7 -12 7 -10 8 -14 1 -10 -6 4 -30 -12 -56 -37 -24 -25 -48 -42
-53 -38 -5 4 -2 -2 6 -12 8 -11 10 -17 3 -13 -7 4 -16 0 -21 -9 -9 -15 -11
-15 -22 6 -9 16 -9 21 0 15 8 -5 10 2 7 25 -4 21 -1 33 9 37 8 3 11 9 8 14 -3
5 0 9 6 9 6 0 8 5 5 10 -3 6 1 10 10 10 9 0 13 5 10 10 -3 6 1 10 9 10 9 0 15
6 14 13 -2 6 3 11 10 10 6 -2 12 2 12 9 0 13 76 88 90 88 6 0 10 7 10 16 0 8
4 13 9 10 5 -3 11 1 15 9 3 8 12 15 21 15 8 0 15 6 15 13 0 7 20 23 45 37 25
14 45 28 45 33 0 4 5 5 10 2 6 -3 10 -1 10 4 0 19 30 12 58 -14z m116 -101 c9
-3 16 -13 16 -21 0 -8 5 -11 10 -8 9 5 12 -8 9 -31 0 -4 5 -10 11 -14 17 -11
17 -106 0 -102 -9 2 -11 -1 -4 -10 18 -23 13 -33 -44 -95 -14 -15 -29 -22 -39
-19 -13 6 -14 4 -3 -9 11 -13 11 -16 -1 -13 -8 2 -13 -2 -12 -9 2 -8 -4 -10
-14 -6 -12 5 -14 3 -8 -8 7 -12 6 -12 -9 0 -16 13 -17 13 -14 -5 2 -13 -3 -19
-17 -19 -11 -1 -19 -7 -17 -14 1 -7 -2 -10 -8 -6 -5 3 -10 0 -10 -7 0 -9 -3
-9 -10 2 -8 13 -10 13 -10 -1 0 -9 -7 -19 -15 -23 -8 -3 -15 0 -15 6 0 7 -6 4
-13 -7 -8 -10 -19 -15 -25 -11 -7 4 -12 2 -12 -4 0 -6 -4 -8 -10 -5 -5 3 -10
1 -10 -5 0 -6 -4 -8 -10 -5 -5 3 -10 2 -10 -4 0 -6 -6 -8 -14 -5 -8 3 -17 1
-21 -5 -3 -6 -15 -11 -26 -11 -10 0 -19 -4 -19 -10 0 -6 -3 -9 -7 -8 -5 0 -15
-2 -23 -5 -8 -4 -27 -11 -42 -16 -16 -6 -28 -15 -28 -21 0 -6 -4 -9 -9 -5 -5
3 -15 -1 -23 -8 -7 -8 -19 -12 -27 -9 -8 3 -11 0 -7 -7 4 -6 1 -11 -8 -11 -10
0 -13 8 -10 27 3 15 7 30 10 35 3 4 -1 8 -8 8 -8 0 -9 3 -3 8 9 6 15 37 16 84
0 9 9 20 19 23 11 3 19 12 17 18 -1 7 4 11 11 9 6 -1 11 2 10 7 -2 5 2 10 7
11 16 4 37 39 30 50 -3 5 0 7 8 4 15 -5 47 20 47 37 0 6 4 8 8 5 5 -3 15 3 24
12 8 9 24 23 36 31 11 8 18 19 15 24 -3 6 -1 7 4 4 6 -4 22 2 36 13 14 11 28
20 32 20 4 0 19 12 33 28 13 15 21 20 17 12 -4 -10 -1 -9 8 2 8 10 17 15 20
11 4 -3 7 0 7 7 0 7 3 10 7 7 3 -4 11 0 17 9 6 8 20 17 31 18 11 2 19 9 18 15
-3 10 18 15 33 9 3 -2 10 5 15 15 11 19 11 19 33 11z m-2608 -383 c-1 -9 -22
-38 -48 -66 -79 -85 -84 -91 -80 -103 2 -7 -1 -12 -7 -12 -6 0 -10 -3 -9 -7 5
-18 -14 -53 -25 -47 -9 5 -9 3 0 -6 7 -8 9 -19 4 -29 -5 -9 -7 -25 -6 -37 1
-11 -4 -21 -12 -21 -7 0 -13 4 -13 9 0 4 -6 8 -13 8 -7 0 -23 11 -35 25 -12
14 -19 25 -15 25 4 0 -2 7 -13 15 -13 10 -14 14 -5 15 9 0 10 4 4 13 -12 15 0
63 15 60 6 -2 9 3 7 10 -3 6 6 25 20 41 14 16 25 25 25 20 0 -4 7 2 16 14 8
12 19 20 24 17 4 -3 10 5 13 17 4 12 9 19 13 15 4 -3 26 7 49 23 23 16 45 26
49 23 3 -4 6 -1 6 5 0 9 4 9 19 1 10 -7 18 -19 17 -28z m255 -111 c6 0 7 6 3
13 -4 6 6 1 22 -13 49 -43 64 -59 64 -71 0 -7 3 -10 6 -6 3 3 16 -5 29 -19 12
-13 26 -24 30 -24 4 0 19 -12 33 -27 13 -16 21 -22 18 -16 -5 9 -2 11 10 6 15
-6 15 -7 -1 -15 -9 -5 -23 -7 -31 -4 -9 3 -14 -1 -14 -12 0 -13 -2 -14 -9 -4
-11 18 -15 19 -32 6 -8 -6 -24 -10 -36 -9 -12 1 -20 -2 -17 -7 3 -4 -2 -8 -10
-8 -9 0 -16 5 -16 12 0 6 -7 3 -15 -8 -9 -12 -14 -14 -15 -6 0 10 -4 9 -16 -3
-13 -13 -19 -13 -32 -3 -9 8 -13 8 -9 2 4 -7 0 -15 -9 -18 -10 -4 -13 -2 -8 7
6 8 3 8 -9 -1 -9 -8 -21 -11 -26 -8 -5 4 -12 2 -16 -3 -3 -5 -14 -8 -25 -6
-11 2 -20 0 -20 -5 0 -10 -19 -8 -39 4 -10 6 -12 5 -7 -3 6 -9 -3 -11 -32 -10
-33 2 -41 7 -45 26 -2 13 0 23 5 23 5 0 6 4 3 10 -6 10 8 42 29 67 39 46 76
83 76 76 0 -4 7 3 16 15 8 12 22 22 30 22 8 0 14 5 14 10 0 6 9 10 21 10 11 0
18 4 14 9 -9 15 29 18 43 4 7 -7 18 -13 23 -13z m279 -245 c0 11 72 9 100 -2
8 -3 18 -5 23 -5 4 1 7 -2 7 -8 0 -5 7 -7 15 -4 8 4 15 2 15 -3 0 -5 10 -9 22
-10 11 -1 25 -8 29 -15 7 -10 9 -10 9 2 0 12 2 12 9 2 4 -8 11 -13 15 -13 23
3 36 0 31 -9 -3 -5 -1 -10 6 -10 7 0 9 -10 7 -25 -3 -13 -1 -26 3 -27 5 -2 -3
-8 -16 -15 -19 -8 -24 -8 -19 0 3 7 -2 3 -10 -7 -12 -15 -16 -16 -16 -5 -1 10
-4 8 -11 -5 -9 -15 -13 -16 -20 -5 -7 11 -9 10 -9 -5 0 -12 -5 -16 -15 -12 -8
3 -14 0 -12 -6 1 -7 -3 -12 -10 -13 -6 0 -20 -9 -30 -20 -18 -20 -68 -23 -87
-5 -5 5 -17 5 -28 -1 -11 -6 -18 -6 -18 0 0 5 -8 10 -17 10 -10 0 -33 1 -51 1
-18 1 -30 5 -28 9 3 4 -1 8 -9 8 -8 0 -12 -3 -10 -7 2 -4 -2 -7 -10 -7 -8 0
-12 4 -9 9 3 5 -7 8 -23 8 -50 -1 -68 3 -75 14 -5 7 -8 6 -8 -4 0 -11 -2 -12
-8 -3 -5 7 -20 14 -35 15 -15 1 -27 6 -27 10 0 4 -7 5 -15 2 -8 -4 -15 -1 -15
4 0 6 -9 9 -20 7 -11 -2 -18 0 -15 6 4 5 0 9 -8 9 -24 0 -27 26 -4 28 12 0 23
6 25 12 2 5 8 7 14 4 6 -4 14 0 19 7 6 10 9 10 9 2 0 -7 7 -10 15 -7 8 4 12
10 9 15 -3 5 2 6 10 3 10 -4 16 -1 16 7 0 11 3 11 10 -1 6 -10 10 -11 10 -2 0
6 9 12 19 12 11 0 23 5 26 11 4 6 13 8 20 5 7 -2 22 2 34 10 16 12 21 12 22 2
0 -10 2 -10 6 0 2 6 9 10 14 6 5 -3 9 -1 9 5 0 6 7 8 15 5 9 -4 15 0 15 7 0
12 2 12 9 0 6 -9 11 -10 15 -3 4 6 13 9 21 5 9 -3 15 1 15 8 0 11 3 11 10 -1
5 -8 10 -10 10 -5z m867 -2380 c0 -8 -4 -12 -9 -9 -5 3 -6 10 -3 15 9 13 12
11 12 -6z"/>
<path d="M4230 6439 c0 -5 5 -7 10 -4 6 3 10 8 10 11 0 2 -4 4 -10 4 -5 0 -10
-5 -10 -11z"/>
<path d="M7186 4733 c-6 -14 -5 -15 5 -6 7 7 10 15 7 18 -3 3 -9 -2 -12 -12z"/>
</g>
</svg>
